<svg version="1.1" id="Layer_1" xmlns="http://www.w3.org/2000/svg" xmlns:xlink="http://www.w3.org/1999/xlink" x="0px" y="0px"
	 width="100%" viewBox="0 0 261 118" enable-background="new 0 0 261 118" xml:space="preserve">
<path fill="#FE4619" opacity="1.000000" stroke="none" 
	d="
M176.000000,119.000000 
	C117.333344,119.000000 59.166695,119.000000 1.000031,119.000000 
	C1.000021,79.666687 1.000021,40.333382 1.000010,1.000052 
	C87.999962,1.000035 174.999924,1.000035 261.999908,1.000017 
	C261.999939,40.333279 261.999939,79.666557 261.999969,118.999924 
	C233.500000,119.000000 205.000000,119.000000 176.000000,119.000000 
M72.834793,52.557999 
	C72.647835,52.259266 72.384438,52.156620 71.687859,51.930328 
	C71.687859,51.930328 71.208969,51.917736 70.939186,51.564476 
	C70.672050,51.367645 70.389473,51.342220 69.177017,51.151573 
	C67.266556,51.393147 65.356102,51.634724 63.421833,52.015968 
	C63.421833,52.015968 63.627632,51.881886 63.271683,52.002258 
	C63.271683,52.002258 63.053627,52.308266 62.630688,52.312565 
	C62.332718,52.421108 62.170181,52.633320 61.386559,52.640049 
	C58.826790,51.884819 56.267025,51.129593 53.273041,50.246254 
	C53.273041,58.535126 53.273041,65.594414 53.273041,72.660934 
	C55.979908,72.660934 58.361843,72.660934 61.023773,72.660934 
	C61.023773,69.651520 60.916870,67.001396 61.053791,64.363922 
	C61.191196,61.717171 59.971043,57.661850 63.936253,57.510567 
	C68.184128,57.348503 66.701035,61.511444 66.937317,64.048706 
	C67.183304,66.690208 67.125252,69.360039 67.139404,72.506989 
	C67.139404,72.506989 67.484589,72.859283 67.484589,72.859283 
	C67.484589,72.859283 67.974823,72.804947 68.838173,72.990273 
	C70.889618,72.918556 72.941063,72.846840 75.743126,72.545044 
	C75.769394,70.717514 75.795654,68.889984 75.989182,66.296837 
	C75.931152,65.519623 75.873116,64.742416 75.961494,63.507908 
	C75.961494,63.507908 75.831543,63.045662 76.014992,62.239162 
	C75.975906,61.140190 75.936813,60.041222 76.216522,58.482346 
	C76.520561,58.014221 76.824600,57.546097 77.838341,57.154594 
	C78.719078,57.472706 79.599808,57.790821 80.502975,58.484802 
	C80.575768,58.744785 80.734909,58.931004 80.922867,59.915268 
	C81.000679,61.951454 81.078491,63.987640 81.022423,66.494766 
	C81.022423,66.494766 81.151459,66.967064 81.001762,67.649704 
	C81.050850,68.110306 81.099945,68.570915 80.986954,69.745415 
	C81.326591,70.765106 81.666229,71.784790 82.865631,72.987488 
	C84.908165,72.919128 86.950706,72.850769 89.639938,72.724342 
	C90.850754,72.571220 92.110374,72.131699 93.261665,72.327888 
	C95.310799,72.677078 97.302246,73.913666 99.303787,73.882362 
	C103.874008,73.810867 108.435768,73.197441 113.502647,72.867172 
	C113.606438,72.582382 113.710220,72.297592 113.997963,71.092010 
	C114.020889,66.940208 114.456505,62.732609 113.905617,58.658398 
	C113.595482,56.364792 112.197517,53.378296 110.353271,52.288551 
	C104.666809,48.928463 95.530380,51.016094 90.155228,57.006313 
	C89.463608,55.814789 88.810066,54.688877 87.887451,53.098915 
	C87.721207,53.033092 87.554955,52.967274 87.467194,52.720509 
	C87.467194,52.720509 87.167625,52.743431 86.577240,52.110222 
	C84.056931,51.898907 81.536621,51.687592 78.397034,51.415623 
	C77.524345,51.910168 76.651657,52.404713 75.134888,53.004765 
	C74.727600,53.156548 74.320320,53.308334 73.510765,53.144897 
	C73.344429,53.108093 73.178101,53.071289 73.017433,52.979923 
	C73.017433,52.979923 72.963814,52.991486 72.834793,52.557999 
M213.977676,35.016472 
	C213.977676,35.016472 213.977264,35.151779 213.636795,34.718651 
	C213.324448,34.529861 213.012115,34.341072 212.829758,34.160480 
	C212.829758,34.160480 212.798706,34.286968 212.578888,33.555157 
	C209.252319,31.255674 206.058517,30.659632 203.164093,34.153297 
	C203.164093,34.153297 203.300461,34.145538 202.798996,34.379173 
	C202.543900,34.641632 202.288818,34.904095 202.038177,35.029526 
	C202.038177,35.029526 202.174973,35.038689 201.723785,35.362343 
	C201.534195,35.676807 201.344620,35.991272 201.119843,36.106434 
	C201.119843,36.106434 201.321274,36.086998 200.803696,36.509106 
	C200.573166,37.116936 200.342636,37.724770 200.141434,38.656925 
	C200.141434,38.656925 199.934418,38.908310 199.351196,39.203419 
	C199.650131,40.769661 199.949081,42.335899 200.116211,43.889439 
	C200.116211,43.889439 200.144547,43.760078 200.260056,44.243725 
	C200.386780,44.557526 200.576721,44.826714 201.069931,45.295887 
	C201.069931,45.295887 201.099258,45.637344 201.332367,46.169594 
	C201.605698,46.440296 201.879044,46.710999 202.021454,46.987137 
	C202.021454,46.987137 202.018417,46.856144 202.365463,47.282421 
	C202.679321,47.467171 202.993179,47.651924 203.116257,47.848667 
	C203.116257,47.848667 203.123138,47.657631 203.488785,48.175396 
	C204.062607,48.391899 204.636444,48.608402 205.077072,48.881992 
	C205.077072,48.881992 205.032990,48.743958 205.631577,49.260220 
	C208.333786,49.982697 211.174057,51.319801 213.051697,47.272823 
	C213.241379,47.067516 213.475937,46.961163 214.243958,46.659325 
	C214.465561,46.353222 214.687149,46.047119 214.929306,45.932308 
	C214.929306,45.932308 214.737213,45.943180 215.224258,45.543110 
	C215.439316,44.969025 215.654373,44.394939 215.882217,43.901459 
	C215.882217,43.901459 215.800644,43.899010 216.472946,43.671726 
	C218.545242,41.541702 218.748932,39.630608 215.920822,38.082958 
	C215.920822,38.082958 215.913177,38.184982 215.767410,37.699692 
	C215.561737,37.433109 215.356079,37.166523 214.925980,36.701187 
	C214.925980,36.701187 214.911743,36.401749 214.674942,35.855907 
	C214.397430,35.576866 214.119919,35.297821 213.977676,35.016472 
M163.045670,55.049423 
	C163.045670,55.049423 163.140640,55.044422 162.579025,55.302483 
	C162.061966,55.925613 161.544907,56.548740 160.822723,57.711887 
	C160.189819,57.541481 159.556915,57.371075 158.984451,57.087048 
	C158.984451,57.087048 158.870483,57.027264 158.861389,56.449162 
	C158.611542,56.172489 158.361694,55.895821 158.007111,54.944992 
	C154.285721,49.930584 149.333496,50.710445 143.795914,52.575317 
	C143.795914,49.447693 143.795914,46.870617 143.795914,44.206726 
	C141.063034,44.206726 138.803543,44.206726 136.225800,44.206726 
	C136.225800,53.838036 136.225800,63.217976 136.225800,72.712631 
	C139.913177,72.950684 143.378922,72.773338 146.655228,73.477463 
	C151.916779,74.608253 155.259750,73.355316 158.561722,68.056213 
	C158.627182,67.721184 158.692642,67.386147 158.981247,66.571869 
	C158.998123,66.396461 159.014999,66.221062 159.753830,65.942375 
	C160.940659,67.149094 162.178131,68.310478 163.305893,69.570076 
	C169.415573,76.393982 180.253235,75.233360 185.034988,66.435112 
	C185.564636,64.010941 186.094299,61.586765 186.623947,59.162594 
	C187.091003,59.189167 187.558060,59.215736 188.025116,59.242306 
	C188.025116,62.078552 187.625046,64.993790 188.163986,67.723625 
	C188.531067,69.582924 190.211807,71.182869 191.653091,72.941444 
	C191.653091,72.941444 191.918793,73.170128 192.168060,73.836128 
	C194.409119,76.626686 196.689514,77.280746 199.533646,73.608665 
	C200.305771,73.389793 201.077911,73.170914 202.510696,72.696297 
	C204.471176,70.544418 204.796097,68.595825 201.409302,67.025558 
	C201.409302,67.025558 201.036850,66.874031 200.604645,66.656754 
	C200.286270,66.554733 199.966690,66.550835 199.428391,66.740700 
	C199.428391,66.740700 199.282196,66.553391 199.560150,65.648941 
	C200.354675,62.377308 201.149200,59.105675 201.941971,55.929665 
	C201.941971,55.929665 201.846527,55.923328 202.477554,55.697178 
	C205.027130,52.083977 202.867828,51.364834 199.854675,51.160179 
	C199.854675,51.160179 199.784760,51.282982 199.740570,50.570694 
	C198.448929,49.055882 197.157288,47.541069 195.457092,45.671196 
	C195.296432,45.157906 195.135757,44.644611 194.709976,43.471634 
	C192.539703,41.498085 190.586975,41.241676 189.010910,44.575104 
	C189.010910,44.575104 188.861771,44.931461 188.495865,45.584019 
	C188.264206,47.328362 188.032562,49.072704 187.280304,50.981117 
	C186.917374,51.006870 186.554459,51.032623 185.431793,51.307079 
	C183.585159,51.565891 181.738510,51.824707 179.955215,52.057751 
	C179.955215,52.057751 179.967178,52.125061 179.540314,51.473022 
	C173.398575,48.423023 166.740128,49.535404 164.010818,54.004898 
	C164.010818,54.004898 164.072357,54.012932 163.619232,54.276760 
	C163.430115,54.565948 163.241013,54.855137 163.045670,55.049423 
M134.026154,55.255936 
	C133.931503,53.869904 133.836853,52.483868 133.779663,51.646282 
	C127.883141,51.646282 122.616852,51.646282 117.293182,51.646282 
	C117.293182,58.662361 117.293182,65.689232 117.293182,72.658813 
	C120.029228,72.658813 122.406036,72.658813 124.860741,72.658813 
	C124.929390,71.477936 125.055298,70.657761 125.011765,69.846672 
	C124.682251,63.707802 125.481041,58.383751 133.268967,57.747475 
	C133.554184,57.724178 133.756256,56.683250 134.026154,55.255936 
z"/>
<path fill="#FEF7F3" opacity="1.000000" stroke="none" 
	d="
M75.897720,58.942245 
	C75.936813,60.041222 75.975906,61.140190 75.846054,62.745621 
	C75.581795,63.514416 75.627777,63.752125 75.815079,63.965202 
	C75.873116,64.742416 75.931152,65.519623 75.734390,66.994217 
	C75.317238,69.386101 75.154869,71.080612 74.992508,72.775124 
	C72.941063,72.846840 70.889618,72.918556 68.294556,72.750206 
	C67.588264,72.322525 67.404663,72.158302 67.200142,72.017479 
	C67.125252,69.360039 67.183304,66.690208 66.937317,64.048706 
	C66.701035,61.511444 68.184128,57.348503 63.936253,57.510567 
	C59.971043,57.661850 61.191196,61.717171 61.053791,64.363922 
	C60.916870,67.001396 61.023773,69.651520 61.023773,72.660934 
	C58.361843,72.660934 55.979908,72.660934 53.273041,72.660934 
	C53.273041,65.594414 53.273041,58.535126 53.273041,50.246254 
	C56.267025,51.129593 58.826790,51.884819 61.931324,52.712749 
	C62.691765,52.654430 62.884277,52.495369 63.053627,52.308266 
	C63.053627,52.308266 63.271683,52.002258 63.416931,51.960442 
	C63.562180,51.918629 63.445644,51.876301 63.445644,51.876301 
	C65.356102,51.634724 67.266556,51.393147 69.806915,51.424160 
	C70.681137,51.816048 70.938522,51.889709 71.208969,51.917736 
	C71.208969,51.917736 71.687859,51.930328 71.998474,52.238472 
	C72.502396,52.731598 72.720634,52.879890 72.963814,52.991486 
	C72.963814,52.991486 73.017433,52.979923 73.089859,53.121449 
	C73.162292,53.262974 73.509712,53.463482 73.509712,53.463482 
	C73.509712,53.463482 73.913033,53.460121 73.913033,53.460121 
	C74.320320,53.308334 74.727600,53.156548 75.775192,52.956909 
	C77.282440,52.431461 78.149376,51.953869 79.016312,51.476276 
	C81.536621,51.687592 84.056931,51.898907 86.904831,52.459038 
	C87.232430,52.807850 87.388695,52.901451 87.388695,52.901451 
	C87.554955,52.967274 87.721207,53.033092 88.003662,53.784363 
	C88.410995,60.574009 88.702118,66.678215 88.993240,72.782417 
	C86.950706,72.850769 84.908165,72.919128 82.430611,72.565048 
	C81.713402,71.105576 81.431221,70.068550 81.149033,69.031517 
	C81.099945,68.570915 81.050850,68.110306 81.152008,67.200645 
	C81.393852,66.483551 81.345200,66.240967 81.156311,66.023827 
	C81.078491,63.987640 81.000679,61.951454 80.899323,59.308033 
	C80.782883,58.477562 80.651138,58.280277 80.480545,58.108936 
	C79.599808,57.790821 78.719078,57.472706 77.241653,57.154182 
	C76.395882,57.749931 76.146797,58.346088 75.897720,58.942245 
z"/>
<path fill="#FEF3ED" opacity="1.000000" stroke="none" 
	d="
M89.316589,72.753380 
	C88.702118,66.678215 88.410995,60.574009 88.138199,54.016388 
	C88.810066,54.688877 89.463608,55.814789 90.155228,57.006313 
	C95.530380,51.016094 104.666809,48.928463 110.353271,52.288551 
	C112.197517,53.378296 113.595482,56.364792 113.905617,58.658398 
	C114.456505,62.732609 114.020889,66.940208 113.747177,71.658760 
	C113.296494,72.388634 113.131355,72.581520 113.000961,72.804161 
	C108.435768,73.197441 103.874008,73.810867 99.303787,73.882362 
	C97.302246,73.913666 95.310799,72.677078 93.261665,72.327888 
	C92.110374,72.131699 90.850754,72.571220 89.316589,72.753380 
M90.976250,60.476856 
	C92.363441,61.728859 92.363441,61.728859 99.198883,58.616684 
	C96.457413,58.957680 93.715950,59.298676 90.976250,60.476856 
z"/>
<path fill="#FEF5F0" opacity="1.000000" stroke="none" 
	d="
M158.110565,68.338295 
	C155.259750,73.355316 151.916779,74.608253 146.655228,73.477463 
	C143.378922,72.773338 139.913177,72.950684 136.225800,72.712631 
	C136.225800,63.217976 136.225800,53.838036 136.225800,44.206726 
	C138.803543,44.206726 141.063034,44.206726 143.795914,44.206726 
	C143.795914,46.870617 143.795914,49.447693 143.795914,52.575317 
	C149.333496,50.710445 154.285721,49.930584 158.160049,55.530033 
	C158.498810,56.419136 158.684647,56.723202 158.870483,57.027267 
	C158.870483,57.027264 158.984451,57.087048 158.968781,57.581894 
	C158.979355,60.733044 159.005600,63.389347 159.031860,66.045654 
	C159.014999,66.221062 158.998123,66.396461 158.738083,67.013443 
	C158.334152,67.735237 158.206039,68.029663 158.110565,68.338295 
M149.879364,57.828262 
	C148.261154,58.068462 145.656815,57.810326 145.230927,58.653061 
	C144.356583,60.383240 144.188751,62.807915 144.629196,64.741959 
	C144.905380,65.954750 146.817642,66.794975 147.995850,67.802361 
	C148.974304,66.646950 150.532700,65.607513 150.792496,64.308388 
	C151.163193,62.454773 150.582230,60.410851 149.879364,57.828262 
z"/>
<path fill="#FEF5EF" opacity="1.000000" stroke="none" 
	d="
M159.392853,65.994019 
	C159.005600,63.389347 158.979355,60.733044 158.938568,57.638702 
	C159.556915,57.371075 160.189819,57.541481 161.239685,57.355659 
	C162.151321,56.347763 162.645981,55.696091 163.140640,55.044418 
	C163.140640,55.044422 163.045670,55.049423 163.307556,55.002579 
	C163.737091,54.641460 163.904724,54.327194 164.072357,54.012932 
	C164.072357,54.012932 164.010818,54.004898 164.364731,53.910664 
	C169.458725,50.162434 174.700867,51.034859 179.967178,52.125061 
	C179.967178,52.125061 179.955215,52.057751 180.123871,52.369148 
	C183.977402,55.545750 184.077957,59.465805 183.772232,63.994202 
	C179.093658,63.994202 174.677750,63.994202 170.156174,63.994202 
	C169.303024,68.500496 171.236420,69.184959 174.790070,68.514130 
	C178.112869,67.886894 181.509094,67.648621 184.873001,67.239143 
	C180.253235,75.233360 169.415573,76.393982 163.305893,69.570076 
	C162.178131,68.310478 160.940659,67.149094 159.392853,65.994019 
z"/>
<path fill="#FEF6F1" opacity="1.000000" stroke="none" 
	d="
M186.191528,51.058376 
	C186.554459,51.032623 186.917374,51.006870 187.950745,50.818565 
	C188.701370,48.747833 188.781570,46.839645 188.861771,44.931461 
	C188.861771,44.931461 189.010910,44.575104 189.447144,44.325531 
	C191.580612,44.094414 193.277863,44.112869 194.975098,44.131325 
	C195.135757,44.644611 195.296432,45.157906 195.667816,46.201546 
	C197.180618,48.248924 198.482697,49.765953 199.784760,51.282982 
	C199.784760,51.282982 199.854675,51.160179 199.977753,51.493011 
	C200.682724,53.191673 201.264618,54.557503 201.846527,55.923332 
	C201.846527,55.923328 201.941971,55.929665 201.514633,55.910439 
	C197.443970,56.852615 196.632584,61.645157 199.282196,66.553391 
	C199.282196,66.553391 199.428391,66.740700 199.743042,66.839722 
	C200.384094,66.917175 200.710464,66.895607 201.036850,66.874031 
	C201.036850,66.874031 201.409302,67.025558 201.663422,67.460831 
	C201.895050,69.581413 201.872543,71.266731 201.850037,72.952042 
	C201.077911,73.170914 200.305771,73.389793 198.885223,73.733383 
	C196.130783,73.628769 194.024796,73.399452 191.918793,73.170135 
	C191.918793,73.170128 191.653091,72.941444 191.326202,72.558228 
	C190.345947,68.396278 189.690460,64.617928 189.040222,60.838661 
	C188.773346,59.287548 188.665359,57.690453 188.218674,56.193790 
	C187.694275,54.436825 186.880051,52.766357 186.191528,51.058376 
z"/>
<path fill="#FEF7F2" opacity="1.000000" stroke="none" 
	d="
M134.011627,55.686253 
	C133.756256,56.683250 133.554184,57.724178 133.268967,57.747475 
	C125.481041,58.383751 124.682251,63.707802 125.011765,69.846672 
	C125.055298,70.657761 124.929390,71.477936 124.860741,72.658813 
	C122.406036,72.658813 120.029228,72.658813 117.293182,72.658813 
	C117.293182,65.689232 117.293182,58.662361 117.293182,51.646282 
	C122.616852,51.646282 127.883141,51.646282 133.779663,51.646282 
	C133.836853,52.483868 133.931503,53.869904 134.011627,55.686253 
z"/>
<path fill="#FFECE4" opacity="1.000000" stroke="none" 
	d="
M199.934418,38.908310 
	C199.934418,38.908310 200.141434,38.656925 200.381165,38.286987 
	C200.854340,37.307037 201.087814,36.697018 201.321289,36.086998 
	C201.321274,36.086998 201.119843,36.106434 201.400879,36.084469 
	C201.846268,35.721233 202.010620,35.379963 202.174973,35.038689 
	C202.174973,35.038689 202.038177,35.029526 202.321350,35.032280 
	C202.836487,34.738537 203.068481,34.442036 203.300461,34.145538 
	C203.300461,34.145538 203.164093,34.153297 203.551041,34.123711 
	C206.891556,34.158401 209.845139,34.222683 212.798706,34.286968 
	C212.798706,34.286968 212.829758,34.160480 212.884277,34.422112 
	C213.284943,34.839752 213.631104,34.995766 213.977264,35.151779 
	C213.977264,35.151779 213.977676,35.016472 213.990601,35.314728 
	C214.306259,35.875904 214.609009,36.138824 214.911743,36.401749 
	C214.911743,36.401749 214.925980,36.701187 215.048340,37.075745 
	C215.418198,37.695198 215.665695,37.940090 215.913177,38.184982 
	C215.913177,38.184982 215.920822,38.082958 215.877792,38.501671 
	C215.823380,40.579922 215.812012,42.239468 215.800644,43.899010 
	C215.800644,43.899010 215.882217,43.901459 215.616608,44.038727 
	C215.146393,44.765057 214.941803,45.354118 214.737213,45.943180 
	C214.737213,45.943180 214.929306,45.932308 214.642105,45.944569 
	C214.155045,46.289143 213.955200,46.621456 213.755341,46.953766 
	C213.475937,46.961163 213.241379,47.067516 212.590317,47.574280 
	C209.763626,48.165146 207.398300,48.454552 205.032990,48.743958 
	C205.032990,48.743958 205.077072,48.881992 204.956635,48.608440 
	C204.265182,48.109135 203.694153,47.883381 203.123138,47.657631 
	C203.123138,47.657631 203.116257,47.848667 203.087585,47.580265 
	C202.712082,47.159958 202.365250,47.008053 202.018417,46.856148 
	C202.018417,46.856144 202.021454,46.987137 202.007050,46.693317 
	C201.694855,46.145447 201.397064,45.891392 201.099258,45.637344 
	C201.099258,45.637344 201.069931,45.295887 200.950989,44.906746 
	C200.602890,44.265095 200.373718,44.012585 200.144547,43.760078 
	C200.144547,43.760078 200.116211,43.889439 200.158295,43.480003 
	C200.111725,41.683151 200.023071,40.295731 199.934418,38.908310 
z"/>
<path fill="#E65937" opacity="1.000000" stroke="none" 
	d="
M185.811661,51.182728 
	C186.880051,52.766357 187.694275,54.436825 188.218674,56.193790 
	C188.665359,57.690453 188.773346,59.287548 189.040222,60.838661 
	C189.690460,64.617928 190.345947,68.396278 191.152237,72.536896 
	C190.211807,71.182869 188.531067,69.582924 188.163986,67.723625 
	C187.625046,64.993790 188.025116,62.078552 188.025116,59.242306 
	C187.558060,59.215736 187.091003,59.189167 186.623947,59.162594 
	C186.094299,61.586765 185.564636,64.010941 184.953995,66.837128 
	C181.509094,67.648621 178.112869,67.886894 174.790070,68.514130 
	C171.236420,69.184959 169.303024,68.500496 170.156174,63.994202 
	C174.677750,63.994202 179.093658,63.994202 183.772232,63.994202 
	C184.077957,59.465805 183.977402,55.545750 180.092209,52.382034 
	C181.738510,51.824707 183.585159,51.565891 185.811661,51.182728 
z"/>
<path fill="#E65937" opacity="1.000000" stroke="none" 
	d="
M179.753754,51.799042 
	C174.700867,51.034859 169.458725,50.162434 164.373199,53.940521 
	C166.740128,49.535404 173.398575,48.423023 179.753754,51.799042 
z"/>
<path fill="#E25433" opacity="1.000000" stroke="none" 
	d="
M199.421173,66.101166 
	C196.632584,61.645157 197.443970,56.852615 201.515518,55.862625 
	C201.149200,59.105675 200.354675,62.377308 199.421173,66.101166 
z"/>
<path fill="#E65937" opacity="1.000000" stroke="none" 
	d="
M192.043427,73.503128 
	C194.024796,73.399452 196.130783,73.628769 198.639938,73.910431 
	C196.689514,77.280746 194.409119,76.626686 192.043427,73.503128 
z"/>
<path fill="#E7522E" opacity="1.000000" stroke="none" 
	d="
M212.688797,33.921062 
	C209.845139,34.222683 206.891556,34.158401 203.565918,34.190369 
	C206.058517,30.659632 209.252319,31.255674 212.688797,33.921062 
z"/>
<path fill="#E25433" opacity="1.000000" stroke="none" 
	d="
M202.180359,72.824173 
	C201.872543,71.266731 201.895050,69.581413 201.863770,67.477432 
	C204.796097,68.595825 204.471176,70.544418 202.180359,72.824173 
z"/>
<path fill="#E25433" opacity="1.000000" stroke="none" 
	d="
M202.162033,55.810257 
	C201.264618,54.557503 200.682724,53.191673 199.919952,51.533669 
	C202.867828,51.364834 205.027130,52.083977 202.162033,55.810257 
z"/>
<path fill="#E7522E" opacity="1.000000" stroke="none" 
	d="
M216.136795,43.785370 
	C215.812012,42.239468 215.823380,40.579922 215.826675,38.503544 
	C218.748932,39.630608 218.545242,41.541702 216.136795,43.785370 
z"/>
<path fill="#E25433" opacity="1.000000" stroke="none" 
	d="
M194.842529,43.801479 
	C193.277863,44.112869 191.580612,44.094414 189.461792,44.132935 
	C190.586975,41.241676 192.539703,41.498085 194.842529,43.801479 
z"/>
<path fill="#E25433" opacity="1.000000" stroke="none" 
	d="
M199.762665,50.926834 
	C198.482697,49.765953 197.180618,48.248924 195.872101,46.379078 
	C197.157288,47.541069 198.448929,49.055882 199.762665,50.926834 
z"/>
<path fill="#E7522E" opacity="1.000000" stroke="none" 
	d="
M205.332275,49.002090 
	C207.398300,48.454552 209.763626,48.165146 212.507187,47.753338 
	C211.174057,51.319801 208.333786,49.982697 205.332275,49.002090 
z"/>
<path fill="#E7522E" opacity="1.000000" stroke="none" 
	d="
M199.642807,39.055862 
	C200.023071,40.295731 200.111725,41.683151 200.224213,43.486355 
	C199.949081,42.335899 199.650131,40.769661 199.642807,39.055862 
z"/>
<path fill="#E25433" opacity="1.000000" stroke="none" 
	d="
M188.678818,45.257740 
	C188.781570,46.839645 188.701370,48.747833 188.211044,50.736534 
	C188.032562,49.072704 188.264206,47.328362 188.678818,45.257740 
z"/>
<path fill="#FEF3ED" opacity="1.000000" stroke="none" 
	d="
M75.367813,72.660080 
	C75.154869,71.080612 75.317238,69.386101 75.650757,67.377022 
	C75.795654,68.889984 75.769394,70.717514 75.367813,72.660080 
z"/>
<path fill="#FEF3ED" opacity="1.000000" stroke="none" 
	d="
M78.706673,51.445950 
	C78.149376,51.953869 77.282440,52.431461 76.097237,52.904160 
	C76.651657,52.404713 77.524345,51.910168 78.706673,51.445950 
z"/>
<path fill="#FEF3ED" opacity="1.000000" stroke="none" 
	d="
M81.067993,69.388466 
	C81.431221,70.068550 81.713402,71.105576 82.000732,72.473541 
	C81.666229,71.784790 81.326591,70.765106 81.067993,69.388466 
z"/>
<path fill="#FEF3ED" opacity="1.000000" stroke="none" 
	d="
M76.057114,58.712296 
	C76.146797,58.346088 76.395882,57.749931 76.886803,57.115875 
	C76.824600,57.546097 76.520561,58.014221 76.057114,58.712296 
z"/>
<path fill="#E65937" opacity="1.000000" stroke="none" 
	d="
M162.859833,55.173450 
	C162.645981,55.696091 162.151321,56.347763 161.342255,57.085655 
	C161.544907,56.548740 162.061966,55.925613 162.859833,55.173450 
z"/>
<path fill="#E7522E" opacity="1.000000" stroke="none" 
	d="
M214.980743,45.743145 
	C214.941803,45.354118 215.146393,44.765057 215.610199,43.998428 
	C215.654373,44.394939 215.439316,44.969025 214.980743,45.743145 
z"/>
<path fill="#E7522E" opacity="1.000000" stroke="none" 
	d="
M201.062500,36.298054 
	C201.087814,36.697018 200.854340,37.307037 200.366486,38.124828 
	C200.342636,37.724770 200.573166,37.116936 201.062500,36.298054 
z"/>
<path fill="#E7522E" opacity="1.000000" stroke="none" 
	d="
M203.305969,47.916512 
	C203.694153,47.883381 204.265182,48.109135 205.023224,48.579895 
	C204.636444,48.608402 204.062607,48.391899 203.305969,47.916512 
z"/>
<path fill="#E7522E" opacity="1.000000" stroke="none" 
	d="
M201.949371,35.200516 
	C202.010620,35.379963 201.846268,35.721233 201.418488,36.184120 
	C201.344620,35.991272 201.534195,35.676807 201.949371,35.200516 
z"/>
<path fill="#FEF3ED" opacity="1.000000" stroke="none" 
	d="
M63.433739,51.946136 
	C63.445644,51.876301 63.562180,51.918629 63.594906,51.900257 
	C63.627632,51.881886 63.421833,52.015968 63.433739,51.946136 
z"/>
<path fill="#FFE9D8" opacity="1.000000" stroke="none" 
	d="
M113.251801,72.835663 
	C113.131355,72.581520 113.296494,72.388634 113.655197,72.119156 
	C113.710220,72.297592 113.606438,72.582382 113.251801,72.835663 
z"/>
<path fill="#FEF3ED" opacity="1.000000" stroke="none" 
	d="
M67.169769,72.262238 
	C67.404663,72.158302 67.588264,72.322525 67.862885,72.657547 
	C67.974823,72.804947 67.484589,72.859283 67.484589,72.859283 
	C67.484589,72.859283 67.139404,72.506989 67.169769,72.262238 
z"/>
<path fill="#FEF3ED" opacity="1.000000" stroke="none" 
	d="
M71.074081,51.741104 
	C70.938522,51.889709 70.681137,51.816048 70.264137,51.592476 
	C70.389473,51.342220 70.672050,51.367645 71.074081,51.741104 
z"/>
<path fill="#E7522E" opacity="1.000000" stroke="none" 
	d="
M201.215820,45.903465 
	C201.397064,45.891392 201.694855,46.145447 202.072510,46.690598 
	C201.879044,46.710999 201.605698,46.440296 201.215820,45.903465 
z"/>
<path fill="#E7522E" opacity="1.000000" stroke="none" 
	d="
M203.049728,34.262356 
	C203.068481,34.442036 202.836487,34.738537 202.319122,35.100796 
	C202.288818,34.904095 202.543900,34.641632 203.049728,34.262356 
z"/>
<path fill="#FEF5EF" opacity="1.000000" stroke="none" 
	d="
M158.336151,68.197250 
	C158.206039,68.029663 158.334152,67.735237 158.626511,67.253067 
	C158.692642,67.386147 158.627182,67.721184 158.336151,68.197250 
z"/>
<path fill="#E7522E" opacity="1.000000" stroke="none" 
	d="
M200.202301,44.001900 
	C200.373718,44.012585 200.602890,44.265095 200.830978,44.784447 
	C200.576721,44.826714 200.386780,44.557526 200.202301,44.001900 
z"/>
<path fill="#E25433" opacity="1.000000" stroke="none" 
	d="
M200.820740,66.765396 
	C200.710464,66.895607 200.384094,66.917175 199.851807,66.791901 
	C199.966690,66.550835 200.286270,66.554733 200.820740,66.765396 
z"/>
<path fill="#FEF3ED" opacity="1.000000" stroke="none" 
	d="
M81.089371,66.259293 
	C81.345200,66.240967 81.393852,66.483551 81.226860,66.859329 
	C81.151459,66.967064 81.022423,66.494766 81.089371,66.259293 
z"/>
<path fill="#FEF3ED" opacity="1.000000" stroke="none" 
	d="
M75.888290,63.736557 
	C75.627777,63.752125 75.581795,63.514416 75.754333,63.148872 
	C75.831543,63.045662 75.961494,63.507908 75.888290,63.736557 
z"/>
<path fill="#E7522E" opacity="1.000000" stroke="none" 
	d="
M213.807037,34.935215 
	C213.631104,34.995766 213.284943,34.839752 212.819275,34.418015 
	C213.012115,34.341072 213.324448,34.529861 213.807037,34.935215 
z"/>
<path fill="#E7522E" opacity="1.000000" stroke="none" 
	d="
M213.999649,46.806545 
	C213.955200,46.621456 214.155045,46.289143 214.631836,45.848923 
	C214.687149,46.047119 214.465561,46.353222 213.999649,46.806545 
z"/>
<path fill="#FEF3ED" opacity="1.000000" stroke="none" 
	d="
M80.491760,58.296867 
	C80.651138,58.280277 80.782883,58.477562 80.928085,58.872131 
	C80.734909,58.931004 80.575768,58.744785 80.491760,58.296867 
z"/>
<path fill="#E7522E" opacity="1.000000" stroke="none" 
	d="
M214.793335,36.128830 
	C214.609009,36.138824 214.306259,35.875904 213.922958,35.315880 
	C214.119919,35.297821 214.397430,35.576866 214.793335,36.128830 
z"/>
<path fill="#E7522E" opacity="1.000000" stroke="none" 
	d="
M202.191940,47.069283 
	C202.365250,47.008053 202.712082,47.159958 203.182983,47.574272 
	C202.993179,47.651924 202.679321,47.467171 202.191940,47.069283 
z"/>
<path fill="#FEF5EF" opacity="1.000000" stroke="none" 
	d="
M158.865936,56.738213 
	C158.684647,56.723202 158.498810,56.419136 158.212418,55.867111 
	C158.361694,55.895821 158.611542,56.172489 158.865936,56.738213 
z"/>
<path fill="#E7522E" opacity="1.000000" stroke="none" 
	d="
M215.840302,37.942337 
	C215.665695,37.940090 215.418198,37.695198 215.160553,37.175121 
	C215.356079,37.166523 215.561737,37.433109 215.840302,37.942337 
z"/>
<path fill="#E65937" opacity="1.000000" stroke="none" 
	d="
M163.845795,54.144844 
	C163.904724,54.327194 163.737091,54.641460 163.310669,55.050026 
	C163.241013,54.855137 163.430115,54.565948 163.845795,54.144844 
z"/>
<path fill="#FEF3ED" opacity="1.000000" stroke="none" 
	d="
M73.711899,53.302509 
	C73.913033,53.460121 73.509712,53.463482 73.509712,53.463482 
	C73.509712,53.463482 73.162292,53.262974 73.087036,53.148731 
	C73.178101,53.071289 73.344429,53.108093 73.711899,53.302509 
z"/>
<path fill="#FEF3ED" opacity="1.000000" stroke="none" 
	d="
M87.427948,52.810982 
	C87.388695,52.901451 87.232430,52.807850 87.200027,52.775642 
	C87.167625,52.743431 87.467194,52.720509 87.427948,52.810982 
z"/>
<path fill="#FEF3ED" opacity="1.000000" stroke="none" 
	d="
M72.899307,52.774742 
	C72.720634,52.879890 72.502396,52.731598 72.176849,52.398338 
	C72.384438,52.156620 72.647835,52.259266 72.899307,52.774742 
z"/>
<path fill="#FEF3ED" opacity="1.000000" stroke="none" 
	d="
M62.842155,52.310417 
	C62.884277,52.495369 62.691765,52.654430 62.309586,52.867325 
	C62.170181,52.633320 62.332718,52.421108 62.842155,52.310417 
z"/>
<path fill="#E9512D" opacity="1.000000" stroke="none" 
	d="
M90.975365,60.058266 
	C93.715950,59.298676 96.457413,58.957680 99.198883,58.616684 
	C92.363441,61.728859 92.363441,61.728859 90.975365,60.058266 
z"/>
<path fill="#EE5834" opacity="1.000000" stroke="none" 
	d="
M150.143555,58.138237 
	C150.582230,60.410851 151.163193,62.454773 150.792496,64.308388 
	C150.532700,65.607513 148.974304,66.646950 147.995850,67.802353 
	C146.817642,66.794975 144.905380,65.954750 144.629196,64.741959 
	C144.188751,62.807915 144.356583,60.383240 145.230927,58.653061 
	C145.656815,57.810326 148.261154,58.068462 150.143555,58.138237 
z"/>
</svg>